<?xml version="1.0" encoding="utf-8"?>
<!-- Generator: Adobe Illustrator 26.5.0, SVG Export Plug-In . SVG Version: 6.00 Build 0)  -->
<svg version="1.1" id="Layer_2" xmlns="http://www.w3.org/2000/svg" xmlns:xlink="http://www.w3.org/1999/xlink" x="0px" y="0px"
	 viewBox="0 0 416 416" style="enable-background:new 0 0 416 416;" xml:space="preserve">
<style type="text/css">
	.st0{fill:#FFFFFF;}
</style>
<path class="st0" d="M208,0C93.1,0,0,93.1,0,208s93.1,208,208,208s208-93.1,208-208S322.9,0,208,0z M192,112c0-8.8,7.2-16,16-16
	c8.8,0,16,7.2,16,16v96c0,8.8-7.2,16-16,16c-8.8,0-16-7.2-16-16V112z M208,312c-13.3,0-24-10.7-24-24s10.7-24,24-24
	c13.3,0,24,10.7,24,24S221.3,312,208,312z"/>
</svg>
