<?xml version="1.0" encoding="utf-8"?>
<!-- Generator: Adobe Illustrator 26.5.0, SVG Export Plug-In . SVG Version: 6.00 Build 0)  -->
<svg version="1.1" id="Layer_1" xmlns="http://www.w3.org/2000/svg" xmlns:xlink="http://www.w3.org/1999/xlink" x="0px" y="0px"
	 viewBox="0 0 512 512" style="enable-background:new 0 0 512 512;" xml:space="preserve">
<style type="text/css">
	.st0{fill:#FFFFFF;}
</style>
<path class="st0" d="M317.4,57c-19.3-33.9-62.4-45.7-96.3-26.4c-11,6.3-20.2,15.4-26.4,26.4L8.8,388.1c-12,21.1-11.8,47.1,0.6,68
	c12.6,21.6,35.8,34.8,60.7,34.6h371.6c25,0.2,48.2-13,60.7-34.6c12.4-20.9,12.6-46.9,0.6-68L317.4,57z M256,405.3
	c-11.8,0-21.3-9.6-21.3-21.3c0-11.8,9.6-21.3,21.3-21.3c11.8,0,21.3,9.6,21.3,21.3C277.3,395.8,267.8,405.3,256,405.3z M277.3,298.7
	c0,11.8-9.6,21.3-21.3,21.3c-11.8,0-21.3-9.6-21.3-21.3v-128c0-11.8,9.6-21.3,21.3-21.3c11.8,0,21.3,9.6,21.3,21.3V298.7z"/>
</svg>
